<svg width="20" height="20" viewBox="0 0 20 20" fill="none" xmlns="http://www.w3.org/2000/svg">
<path fill-rule="evenodd" clip-rule="evenodd" d="M10.0001 6.87516C8.27419 6.87516 6.87508 8.27427 6.87508 10.0002C6.87508 11.7261 8.27419 13.1252 10.0001 13.1252C11.726 13.1252 13.1251 11.7261 13.1251 10.0002C13.1251 8.27427 11.726 6.87516 10.0001 6.87516ZM8.12508 10.0002C8.12508 8.96463 8.96455 8.12516 10.0001 8.12516C11.0356 8.12516 11.8751 8.96463 11.8751 10.0002C11.8751 11.0357 11.0356 11.8752 10.0001 11.8752C8.96455 11.8752 8.12508 11.0357 8.12508 10.0002Z" fill="white" fill-opacity="0.38"/>
<path fill-rule="evenodd" clip-rule="evenodd" d="M10.0001 2.7085C6.2383 2.7085 3.70449 4.96199 2.23389 6.87255L2.20737 6.907C1.87478 7.33894 1.56846 7.73676 1.36065 8.20716C1.13812 8.71089 1.04175 9.2599 1.04175 10.0002C1.04175 10.7404 1.13812 11.2894 1.36065 11.7932C1.56847 12.2636 1.87478 12.6614 2.20737 13.0933L2.23389 13.1278C3.70449 15.0383 6.2383 17.2918 10.0001 17.2918C13.7619 17.2918 16.2957 15.0383 17.7663 13.1278L17.7928 13.0934C18.1254 12.6614 18.4317 12.2636 18.6395 11.7932C18.862 11.2894 18.9584 10.7404 18.9584 10.0002C18.9584 9.2599 18.862 8.71089 18.6395 8.20716C18.4317 7.73676 18.1254 7.33893 17.7928 6.90698L17.7663 6.87255C16.2957 4.96199 13.7619 2.7085 10.0001 2.7085ZM3.22443 7.635C4.58228 5.87093 6.79205 3.9585 10.0001 3.9585C13.2081 3.9585 15.4179 5.87093 16.7757 7.635C17.1412 8.10982 17.3553 8.39354 17.4961 8.71229C17.6277 9.01018 17.7084 9.37428 17.7084 10.0002C17.7084 10.6261 17.6277 10.9901 17.4961 11.288C17.3553 11.6068 17.1412 11.8905 16.7757 12.3653C15.4179 14.1294 13.2081 16.0418 10.0001 16.0418C6.79205 16.0418 4.58228 14.1294 3.22443 12.3653C2.85894 11.8905 2.64486 11.6068 2.50405 11.288C2.37245 10.9901 2.29175 10.6261 2.29175 10.0002C2.29175 9.37428 2.37245 9.01018 2.50405 8.71229C2.64486 8.39354 2.85894 8.10982 3.22443 7.635Z" fill="white" fill-opacity="0.38"/>
</svg>
